<mxfile host="app.diagrams.net" modified="2023-04-09T15:32:38.360Z" agent="Mozilla/5.0 (Windows NT 10.0; Win64; x64; rv:109.0) Gecko/20100101 Firefox/111.0" etag="KW0k-uKOLubaeAmQ7Oyt" version="21.1.4" type="device">
  <diagram name="Страница 1" id="IZV1Hm3tQNgpVBTpKS9V">
    <mxGraphModel dx="900" dy="-203" grid="0" gridSize="10" guides="1" tooltips="1" connect="1" arrows="1" fold="1" page="1" pageScale="1" pageWidth="850" pageHeight="1100" math="0" shadow="0">
      <root>
        <mxCell id="0" />
        <mxCell id="1" parent="0" />
        <mxCell id="Ub1_vusqEFFK5saVrgV2-466" value="" style="rounded=0;whiteSpace=wrap;html=1;dashed=1;" parent="1" vertex="1">
          <mxGeometry x="1857" y="1470.3333333333335" width="903" height="1206" as="geometry" />
        </mxCell>
        <mxCell id="Ub1_vusqEFFK5saVrgV2-467" value="" style="rounded=0;whiteSpace=wrap;html=1;dashed=1;" parent="1" vertex="1">
          <mxGeometry x="1873" y="1970.3333333333335" width="874" height="690" as="geometry" />
        </mxCell>
        <mxCell id="Ub1_vusqEFFK5saVrgV2-468" style="rounded=0;orthogonalLoop=1;jettySize=auto;html=1;exitX=0.25;exitY=1;exitDx=0;exitDy=0;entryX=0.5;entryY=0;entryDx=0;entryDy=0;endArrow=none;endFill=0;" parent="1" source="Ub1_vusqEFFK5saVrgV2-471" target="Ub1_vusqEFFK5saVrgV2-477" edge="1">
          <mxGeometry relative="1" as="geometry" />
        </mxCell>
        <mxCell id="Ub1_vusqEFFK5saVrgV2-469" style="rounded=0;orthogonalLoop=1;jettySize=auto;html=1;exitX=0;exitY=0.75;exitDx=0;exitDy=0;entryX=0.942;entryY=0.246;entryDx=0;entryDy=0;entryPerimeter=0;endArrow=none;endFill=0;" parent="1" source="Ub1_vusqEFFK5saVrgV2-471" target="Ub1_vusqEFFK5saVrgV2-476" edge="1">
          <mxGeometry relative="1" as="geometry" />
        </mxCell>
        <mxCell id="Ub1_vusqEFFK5saVrgV2-470" style="rounded=0;orthogonalLoop=1;jettySize=auto;html=1;exitX=0.5;exitY=1;exitDx=0;exitDy=0;entryX=0.5;entryY=0;entryDx=0;entryDy=0;endArrow=none;endFill=0;" parent="1" source="Ub1_vusqEFFK5saVrgV2-471" target="Ub1_vusqEFFK5saVrgV2-488" edge="1">
          <mxGeometry relative="1" as="geometry" />
        </mxCell>
        <mxCell id="Ub1_vusqEFFK5saVrgV2-471" value="&lt;font style=&quot;font-size: 18px;&quot;&gt;imit&lt;/font&gt;" style="rounded=0;whiteSpace=wrap;html=1;" parent="1" vertex="1">
          <mxGeometry x="2198" y="1650.3333333333335" width="120" height="60" as="geometry" />
        </mxCell>
        <mxCell id="Ub1_vusqEFFK5saVrgV2-472" value="&lt;font style=&quot;font-size: 18px;&quot;&gt;templates&lt;/font&gt;" style="ellipse;whiteSpace=wrap;html=1;" parent="1" vertex="1">
          <mxGeometry x="2107" y="1493.0033333333336" width="120" height="80" as="geometry" />
        </mxCell>
        <mxCell id="Ub1_vusqEFFK5saVrgV2-473" value="&lt;font style=&quot;font-size: 18px;&quot;&gt;controllers&lt;/font&gt;" style="ellipse;whiteSpace=wrap;html=1;" parent="1" vertex="1">
          <mxGeometry x="1963" y="1565.0033333333336" width="120" height="80" as="geometry" />
        </mxCell>
        <mxCell id="Ub1_vusqEFFK5saVrgV2-474" value="&lt;font style=&quot;font-size: 18px;&quot;&gt;static&lt;/font&gt;" style="ellipse;whiteSpace=wrap;html=1;" parent="1" vertex="1">
          <mxGeometry x="2278" y="1493.0033333333336" width="120" height="80" as="geometry" />
        </mxCell>
        <mxCell id="Ub1_vusqEFFK5saVrgV2-476" value="&lt;font style=&quot;font-size: 18px;&quot;&gt;config.py&lt;/font&gt;" style="ellipse;whiteSpace=wrap;html=1;" parent="1" vertex="1">
          <mxGeometry x="1981" y="1705.0033333333336" width="120" height="80" as="geometry" />
        </mxCell>
        <mxCell id="Ub1_vusqEFFK5saVrgV2-477" value="&lt;font style=&quot;font-size: 18px;&quot;&gt;__init__.py&lt;/font&gt;" style="ellipse;whiteSpace=wrap;html=1;" parent="1" vertex="1">
          <mxGeometry x="2113" y="1800.3333333333335" width="120" height="80" as="geometry" />
        </mxCell>
        <mxCell id="Ub1_vusqEFFK5saVrgV2-480" style="edgeStyle=orthogonalEdgeStyle;rounded=0;orthogonalLoop=1;jettySize=auto;html=1;exitX=1;exitY=0.5;exitDx=0;exitDy=0;entryX=0;entryY=0.5;entryDx=0;entryDy=0;endArrow=none;endFill=0;" parent="1" source="Ub1_vusqEFFK5saVrgV2-481" target="Ub1_vusqEFFK5saVrgV2-526" edge="1">
          <mxGeometry relative="1" as="geometry" />
        </mxCell>
        <mxCell id="Ub1_vusqEFFK5saVrgV2-481" value="&lt;font style=&quot;font-size: 18px;&quot;&gt;models.py&lt;/font&gt;" style="ellipse;whiteSpace=wrap;html=1;" parent="1" vertex="1">
          <mxGeometry x="2411" y="1565.0033333333336" width="120" height="80" as="geometry" />
        </mxCell>
        <mxCell id="Ub1_vusqEFFK5saVrgV2-482" value="&lt;font style=&quot;font-size: 18px;&quot;&gt;utils.py&lt;/font&gt;" style="ellipse;whiteSpace=wrap;html=1;" parent="1" vertex="1">
          <mxGeometry x="2434.5" y="1705.0033333333336" width="120" height="80" as="geometry" />
        </mxCell>
        <mxCell id="Ub1_vusqEFFK5saVrgV2-483" value="&lt;font style=&quot;font-size: 18px;&quot;&gt;*&lt;/font&gt;&lt;font style=&quot;font-size: 18px;&quot;&gt;LOG_FILE*&lt;/font&gt;" style="ellipse;whiteSpace=wrap;html=1;" parent="1" vertex="1">
          <mxGeometry x="2273" y="1800.3333333333335" width="120" height="80" as="geometry" />
        </mxCell>
        <mxCell id="Ub1_vusqEFFK5saVrgV2-484" style="rounded=0;orthogonalLoop=1;jettySize=auto;html=1;exitX=0.681;exitY=0.048;exitDx=0;exitDy=0;entryX=0.5;entryY=1;entryDx=0;entryDy=0;startArrow=classic;startFill=1;exitPerimeter=0;" parent="1" source="Ub1_vusqEFFK5saVrgV2-488" target="Ub1_vusqEFFK5saVrgV2-483" edge="1">
          <mxGeometry relative="1" as="geometry" />
        </mxCell>
        <mxCell id="Ub1_vusqEFFK5saVrgV2-485" value="&lt;font style=&quot;font-size: 18px;&quot;&gt;Логирование&lt;/font&gt;" style="edgeLabel;html=1;align=center;verticalAlign=middle;resizable=0;points=[];" parent="Ub1_vusqEFFK5saVrgV2-484" vertex="1" connectable="0">
          <mxGeometry x="0.1773" y="2" relative="1" as="geometry">
            <mxPoint as="offset" />
          </mxGeometry>
        </mxCell>
        <mxCell id="Ub1_vusqEFFK5saVrgV2-487" style="rounded=0;orthogonalLoop=1;jettySize=auto;html=1;exitX=0;exitY=1;exitDx=0;exitDy=0;entryX=1;entryY=0;entryDx=0;entryDy=0;endArrow=none;endFill=0;" parent="1" source="Ub1_vusqEFFK5saVrgV2-488" target="Ub1_vusqEFFK5saVrgV2-501" edge="1">
          <mxGeometry relative="1" as="geometry" />
        </mxCell>
        <mxCell id="Ub1_vusqEFFK5saVrgV2-488" value="&lt;font style=&quot;font-size: 18px;&quot;&gt;Autoreport&lt;/font&gt;" style="ellipse;whiteSpace=wrap;html=1;" parent="1" vertex="1">
          <mxGeometry x="2198" y="2040.3333333333335" width="120" height="80" as="geometry" />
        </mxCell>
        <mxCell id="Ub1_vusqEFFK5saVrgV2-489" style="rounded=0;orthogonalLoop=1;jettySize=auto;html=1;exitX=0;exitY=0.25;exitDx=0;exitDy=0;entryX=1;entryY=0.5;entryDx=0;entryDy=0;endArrow=none;endFill=0;" parent="1" source="Ub1_vusqEFFK5saVrgV2-471" target="Ub1_vusqEFFK5saVrgV2-473" edge="1">
          <mxGeometry relative="1" as="geometry">
            <mxPoint x="2238" y="1720.3333333333335" as="sourcePoint" />
            <mxPoint x="2205" y="1822.3333333333335" as="targetPoint" />
          </mxGeometry>
        </mxCell>
        <mxCell id="Ub1_vusqEFFK5saVrgV2-490" style="rounded=0;orthogonalLoop=1;jettySize=auto;html=1;exitX=0.25;exitY=0;exitDx=0;exitDy=0;entryX=0.5;entryY=1;entryDx=0;entryDy=0;endArrow=none;endFill=0;" parent="1" source="Ub1_vusqEFFK5saVrgV2-471" target="Ub1_vusqEFFK5saVrgV2-472" edge="1">
          <mxGeometry relative="1" as="geometry">
            <mxPoint x="2208" y="1690.3333333333335" as="sourcePoint" />
            <mxPoint x="2113" y="1710.3333333333335" as="targetPoint" />
          </mxGeometry>
        </mxCell>
        <mxCell id="Ub1_vusqEFFK5saVrgV2-492" style="rounded=0;orthogonalLoop=1;jettySize=auto;html=1;exitX=0.75;exitY=0;exitDx=0;exitDy=0;entryX=0.5;entryY=1;entryDx=0;entryDy=0;endArrow=none;endFill=0;" parent="1" source="Ub1_vusqEFFK5saVrgV2-471" target="Ub1_vusqEFFK5saVrgV2-474" edge="1">
          <mxGeometry relative="1" as="geometry">
            <mxPoint x="2208" y="1660.3333333333335" as="sourcePoint" />
            <mxPoint x="2161" y="1588.3333333333335" as="targetPoint" />
          </mxGeometry>
        </mxCell>
        <mxCell id="Ub1_vusqEFFK5saVrgV2-493" style="rounded=0;orthogonalLoop=1;jettySize=auto;html=1;exitX=1;exitY=0.75;exitDx=0;exitDy=0;entryX=0;entryY=0;entryDx=0;entryDy=0;endArrow=none;endFill=0;" parent="1" source="Ub1_vusqEFFK5saVrgV2-471" target="Ub1_vusqEFFK5saVrgV2-482" edge="1">
          <mxGeometry relative="1" as="geometry">
            <mxPoint x="2268" y="1660.3333333333335" as="sourcePoint" />
            <mxPoint x="2268" y="1590.3333333333335" as="targetPoint" />
          </mxGeometry>
        </mxCell>
        <mxCell id="Ub1_vusqEFFK5saVrgV2-495" style="rounded=0;orthogonalLoop=1;jettySize=auto;html=1;exitX=1;exitY=0.25;exitDx=0;exitDy=0;entryX=0;entryY=0.5;entryDx=0;entryDy=0;endArrow=none;endFill=0;" parent="1" source="Ub1_vusqEFFK5saVrgV2-471" target="Ub1_vusqEFFK5saVrgV2-481" edge="1">
          <mxGeometry relative="1" as="geometry">
            <mxPoint x="2328" y="1675.3333333333335" as="sourcePoint" />
            <mxPoint x="2403" y="1630.3333333333335" as="targetPoint" />
          </mxGeometry>
        </mxCell>
        <mxCell id="Ub1_vusqEFFK5saVrgV2-497" style="rounded=0;orthogonalLoop=1;jettySize=auto;html=1;exitX=0.75;exitY=1;exitDx=0;exitDy=0;entryX=0.5;entryY=0;entryDx=0;entryDy=0;endArrow=none;endFill=0;" parent="1" source="Ub1_vusqEFFK5saVrgV2-471" target="Ub1_vusqEFFK5saVrgV2-483" edge="1">
          <mxGeometry relative="1" as="geometry">
            <mxPoint x="2328" y="1705.3333333333335" as="sourcePoint" />
            <mxPoint x="2421" y="1762.3333333333335" as="targetPoint" />
          </mxGeometry>
        </mxCell>
        <mxCell id="Ub1_vusqEFFK5saVrgV2-498" style="rounded=0;orthogonalLoop=1;jettySize=auto;html=1;exitX=0;exitY=0;exitDx=0;exitDy=0;entryX=0.5;entryY=1;entryDx=0;entryDy=0;startArrow=classic;startFill=1;" parent="1" source="Ub1_vusqEFFK5saVrgV2-488" target="Ub1_vusqEFFK5saVrgV2-477" edge="1">
          <mxGeometry relative="1" as="geometry">
            <mxPoint x="2310" y="2022.3333333333335" as="sourcePoint" />
            <mxPoint x="2383" y="1890.3333333333335" as="targetPoint" />
          </mxGeometry>
        </mxCell>
        <mxCell id="Ub1_vusqEFFK5saVrgV2-499" value="&lt;font style=&quot;font-size: 18px;&quot;&gt;blueprint&lt;/font&gt;" style="edgeLabel;html=1;align=center;verticalAlign=middle;resizable=0;points=[];" parent="Ub1_vusqEFFK5saVrgV2-498" vertex="1" connectable="0">
          <mxGeometry x="0.1773" y="2" relative="1" as="geometry">
            <mxPoint as="offset" />
          </mxGeometry>
        </mxCell>
        <mxCell id="Ub1_vusqEFFK5saVrgV2-500" value="&lt;font style=&quot;font-size: 18px;&quot;&gt;templates&lt;/font&gt;" style="ellipse;whiteSpace=wrap;html=1;" parent="1" vertex="1">
          <mxGeometry x="2547" y="2060.3333333333335" width="120" height="80" as="geometry" />
        </mxCell>
        <mxCell id="Ub1_vusqEFFK5saVrgV2-501" value="&lt;div&gt;&lt;font style=&quot;font-size: 18px;&quot;&gt;controllers&lt;br&gt;&lt;/font&gt;&lt;/div&gt;&lt;div&gt;&lt;font style=&quot;font-size: 18px;&quot;&gt;&lt;br&gt;&lt;/font&gt;&lt;/div&gt;&lt;div&gt;&lt;font style=&quot;font-size: 18px;&quot;&gt;&lt;br&gt;&lt;/font&gt;&lt;/div&gt;&lt;div&gt;&lt;br&gt;&lt;/div&gt;&lt;div&gt;&lt;br&gt;&lt;/div&gt;" style="ellipse;whiteSpace=wrap;html=1;" parent="1" vertex="1">
          <mxGeometry x="1883" y="2398.3333333333335" width="200" height="130" as="geometry" />
        </mxCell>
        <mxCell id="Ub1_vusqEFFK5saVrgV2-502" value="&lt;font style=&quot;font-size: 18px;&quot;&gt;static&lt;/font&gt;" style="ellipse;whiteSpace=wrap;html=1;" parent="1" vertex="1">
          <mxGeometry x="2438.5" y="1986.3333333333335" width="120" height="80" as="geometry" />
        </mxCell>
        <mxCell id="Ub1_vusqEFFK5saVrgV2-503" style="rounded=0;orthogonalLoop=1;jettySize=auto;html=1;exitX=1;exitY=0.5;exitDx=0;exitDy=0;entryX=0;entryY=0.5;entryDx=0;entryDy=0;startArrow=classic;startFill=1;" parent="1" source="Ub1_vusqEFFK5saVrgV2-504" target="Ub1_vusqEFFK5saVrgV2-505" edge="1">
          <mxGeometry relative="1" as="geometry" />
        </mxCell>
        <mxCell id="Ub1_vusqEFFK5saVrgV2-504" value="&lt;font style=&quot;font-size: 18px;&quot;&gt;autoreport.py&lt;/font&gt;" style="ellipse;whiteSpace=wrap;html=1;" parent="1" vertex="1">
          <mxGeometry x="1918" y="2448.3333333333335" width="130" height="70" as="geometry" />
        </mxCell>
        <mxCell id="Ub1_vusqEFFK5saVrgV2-505" value="&lt;font style=&quot;font-size: 18px;&quot;&gt;funcs.py&lt;/font&gt;" style="ellipse;whiteSpace=wrap;html=1;" parent="1" vertex="1">
          <mxGeometry x="2133" y="2427.3333333333335" width="135" height="80" as="geometry" />
        </mxCell>
        <mxCell id="Ub1_vusqEFFK5saVrgV2-506" value="&lt;font style=&quot;font-size: 18px;&quot;&gt;tests&lt;/font&gt;" style="ellipse;whiteSpace=wrap;html=1;" parent="1" vertex="1">
          <mxGeometry x="1914" y="2167.0033333333336" width="120" height="80" as="geometry" />
        </mxCell>
        <mxCell id="Ub1_vusqEFFK5saVrgV2-507" value="&lt;font style=&quot;font-size: 18px;&quot;&gt;docs&lt;/font&gt;" style="ellipse;whiteSpace=wrap;html=1;" parent="1" vertex="1">
          <mxGeometry x="2519" y="2174.3333333333335" width="120" height="80" as="geometry" />
        </mxCell>
        <mxCell id="Ub1_vusqEFFK5saVrgV2-509" value="&lt;font style=&quot;font-size: 18px;&quot;&gt;config.txt&lt;/font&gt;" style="ellipse;whiteSpace=wrap;html=1;" parent="1" vertex="1">
          <mxGeometry x="1950" y="2287.3333333333335" width="120" height="80" as="geometry" />
        </mxCell>
        <mxCell id="Ub1_vusqEFFK5saVrgV2-510" style="rounded=0;orthogonalLoop=1;jettySize=auto;html=1;exitX=0.5;exitY=1;exitDx=0;exitDy=0;entryX=1;entryY=0;entryDx=0;entryDy=0;endArrow=none;endFill=0;" parent="1" source="Ub1_vusqEFFK5saVrgV2-488" target="Ub1_vusqEFFK5saVrgV2-505" edge="1">
          <mxGeometry relative="1" as="geometry">
            <mxPoint x="2208" y="2090.3333333333335" as="sourcePoint" />
            <mxPoint x="2123" y="2050.3333333333335" as="targetPoint" />
          </mxGeometry>
        </mxCell>
        <mxCell id="Ub1_vusqEFFK5saVrgV2-511" style="rounded=0;orthogonalLoop=1;jettySize=auto;html=1;exitX=0.5;exitY=1;exitDx=0;exitDy=0;endArrow=none;endFill=0;entryX=0.5;entryY=0;entryDx=0;entryDy=0;" parent="1" source="Ub1_vusqEFFK5saVrgV2-488" target="Ub1_vusqEFFK5saVrgV2-531" edge="1">
          <mxGeometry relative="1" as="geometry">
            <mxPoint x="2208" y="2090.3333333333335" as="sourcePoint" />
            <mxPoint x="2180.5" y="2350.3333333333335" as="targetPoint" />
          </mxGeometry>
        </mxCell>
        <mxCell id="Ub1_vusqEFFK5saVrgV2-512" style="rounded=0;orthogonalLoop=1;jettySize=auto;html=1;exitX=0;exitY=1;exitDx=0;exitDy=0;entryX=1;entryY=0;entryDx=0;entryDy=0;endArrow=none;endFill=0;" parent="1" source="Ub1_vusqEFFK5saVrgV2-488" target="Ub1_vusqEFFK5saVrgV2-509" edge="1">
          <mxGeometry relative="1" as="geometry">
            <mxPoint x="2310" y="2118.3333333333335" as="sourcePoint" />
            <mxPoint x="2451" y="2432.3333333333335" as="targetPoint" />
          </mxGeometry>
        </mxCell>
        <mxCell id="Ub1_vusqEFFK5saVrgV2-513" style="rounded=0;orthogonalLoop=1;jettySize=auto;html=1;exitX=0;exitY=0.5;exitDx=0;exitDy=0;entryX=1;entryY=0.5;entryDx=0;entryDy=0;endArrow=none;endFill=0;" parent="1" source="Ub1_vusqEFFK5saVrgV2-488" target="Ub1_vusqEFFK5saVrgV2-506" edge="1">
          <mxGeometry relative="1" as="geometry">
            <mxPoint x="2310" y="2118.3333333333335" as="sourcePoint" />
            <mxPoint x="2491" y="2342.3333333333335" as="targetPoint" />
          </mxGeometry>
        </mxCell>
        <mxCell id="Ub1_vusqEFFK5saVrgV2-514" style="rounded=0;orthogonalLoop=1;jettySize=auto;html=1;exitX=1;exitY=0.5;exitDx=0;exitDy=0;entryX=0;entryY=0.5;entryDx=0;entryDy=0;endArrow=none;endFill=0;" parent="1" source="Ub1_vusqEFFK5saVrgV2-488" target="Ub1_vusqEFFK5saVrgV2-507" edge="1">
          <mxGeometry relative="1" as="geometry">
            <mxPoint x="2310" y="2118.3333333333335" as="sourcePoint" />
            <mxPoint x="2513" y="2290.3333333333335" as="targetPoint" />
          </mxGeometry>
        </mxCell>
        <mxCell id="Ub1_vusqEFFK5saVrgV2-515" style="rounded=0;orthogonalLoop=1;jettySize=auto;html=1;exitX=1;exitY=0.5;exitDx=0;exitDy=0;entryX=0;entryY=0.5;entryDx=0;entryDy=0;endArrow=none;endFill=0;" parent="1" source="Ub1_vusqEFFK5saVrgV2-488" target="Ub1_vusqEFFK5saVrgV2-502" edge="1">
          <mxGeometry relative="1" as="geometry">
            <mxPoint x="2328" y="2090.3333333333335" as="sourcePoint" />
            <mxPoint x="2533" y="2200.3333333333335" as="targetPoint" />
          </mxGeometry>
        </mxCell>
        <mxCell id="Ub1_vusqEFFK5saVrgV2-516" style="rounded=0;orthogonalLoop=1;jettySize=auto;html=1;exitX=1;exitY=0.5;exitDx=0;exitDy=0;entryX=0;entryY=0.5;entryDx=0;entryDy=0;endArrow=none;endFill=0;" parent="1" source="Ub1_vusqEFFK5saVrgV2-488" target="Ub1_vusqEFFK5saVrgV2-500" edge="1">
          <mxGeometry relative="1" as="geometry">
            <mxPoint x="2328" y="2090.3333333333335" as="sourcePoint" />
            <mxPoint x="2403" y="2040.3333333333335" as="targetPoint" />
          </mxGeometry>
        </mxCell>
        <mxCell id="Ub1_vusqEFFK5saVrgV2-517" value="&lt;font style=&quot;font-size: 18px;&quot;&gt;&lt;b&gt;Сервис AutoReport&lt;/b&gt;&lt;/font&gt; " style="text;html=1;strokeColor=none;fillColor=none;align=center;verticalAlign=middle;whiteSpace=wrap;rounded=0;" parent="1" vertex="1">
          <mxGeometry x="2566" y="1970.33" width="178" height="30" as="geometry" />
        </mxCell>
        <mxCell id="Ub1_vusqEFFK5saVrgV2-518" value="&lt;font style=&quot;font-size: 18px;&quot;&gt;&lt;b&gt;Сайт ИМИТ&lt;/b&gt;&lt;/font&gt; " style="text;html=1;strokeColor=none;fillColor=none;align=center;verticalAlign=middle;whiteSpace=wrap;rounded=0;" parent="1" vertex="1">
          <mxGeometry x="2632" y="1470.33" width="128" height="30" as="geometry" />
        </mxCell>
        <mxCell id="Ub1_vusqEFFK5saVrgV2-519" value="&lt;font style=&quot;font-size: 18px;&quot;&gt;Пользователь&lt;/font&gt;" style="shape=umlActor;verticalLabelPosition=bottom;verticalAlign=top;html=1;outlineConnect=0;" parent="1" vertex="1">
          <mxGeometry x="1727" y="2430.3333333333335" width="60" height="110" as="geometry" />
        </mxCell>
        <mxCell id="Ub1_vusqEFFK5saVrgV2-520" style="rounded=0;orthogonalLoop=1;jettySize=auto;html=1;entryX=0;entryY=0.5;entryDx=0;entryDy=0;startArrow=classic;startFill=1;" parent="1" source="Ub1_vusqEFFK5saVrgV2-519" target="Ub1_vusqEFFK5saVrgV2-504" edge="1">
          <mxGeometry relative="1" as="geometry">
            <mxPoint x="2013" y="2130.3333333333335" as="sourcePoint" />
            <mxPoint x="2048" y="2150.3333333333335" as="targetPoint" />
          </mxGeometry>
        </mxCell>
        <mxCell id="Ub1_vusqEFFK5saVrgV2-521" style="rounded=0;orthogonalLoop=1;jettySize=auto;html=1;exitX=1;exitY=0.5;exitDx=0;exitDy=0;entryX=0;entryY=0.5;entryDx=0;entryDy=0;startArrow=classic;startFill=1;" parent="1" source="Ub1_vusqEFFK5saVrgV2-505" target="Ub1_vusqEFFK5saVrgV2-531" edge="1">
          <mxGeometry relative="1" as="geometry">
            <mxPoint x="1995" y="2158.3333333333335" as="sourcePoint" />
            <mxPoint x="2003" y="2282.3333333333335" as="targetPoint" />
          </mxGeometry>
        </mxCell>
        <mxCell id="Ub1_vusqEFFK5saVrgV2-522" value="&lt;font style=&quot;font-size: 18px;&quot;&gt;models&lt;/font&gt;" style="ellipse;whiteSpace=wrap;html=1;" parent="1" vertex="1">
          <mxGeometry x="1901" y="2040.3333333333335" width="120" height="80" as="geometry" />
        </mxCell>
        <mxCell id="Ub1_vusqEFFK5saVrgV2-523" style="rounded=0;orthogonalLoop=1;jettySize=auto;html=1;exitX=0;exitY=0.5;exitDx=0;exitDy=0;entryX=1;entryY=0.5;entryDx=0;entryDy=0;endArrow=none;endFill=0;" parent="1" source="Ub1_vusqEFFK5saVrgV2-488" target="Ub1_vusqEFFK5saVrgV2-522" edge="1">
          <mxGeometry relative="1" as="geometry">
            <mxPoint x="2268" y="2130.3333333333335" as="sourcePoint" />
            <mxPoint x="2483" y="2390.3333333333335" as="targetPoint" />
          </mxGeometry>
        </mxCell>
        <mxCell id="Ub1_vusqEFFK5saVrgV2-524" style="rounded=0;orthogonalLoop=1;jettySize=auto;html=1;exitX=1;exitY=0;exitDx=0;exitDy=0;entryX=0.5;entryY=1;entryDx=0;entryDy=0;startArrow=classic;startFill=1;" parent="1" source="Ub1_vusqEFFK5saVrgV2-488" target="Ub1_vusqEFFK5saVrgV2-482" edge="1">
          <mxGeometry relative="1" as="geometry">
            <mxPoint x="2290" y="2054.3333333333335" as="sourcePoint" />
            <mxPoint x="2343" y="1890.3333333333335" as="targetPoint" />
          </mxGeometry>
        </mxCell>
        <mxCell id="Ub1_vusqEFFK5saVrgV2-525" value="&lt;font style=&quot;font-size: 18px;&quot;&gt;Проверка роли&lt;br&gt;&lt;/font&gt;" style="edgeLabel;html=1;align=center;verticalAlign=middle;resizable=0;points=[];" parent="Ub1_vusqEFFK5saVrgV2-524" vertex="1" connectable="0">
          <mxGeometry x="0.1773" y="2" relative="1" as="geometry">
            <mxPoint x="24" y="-10" as="offset" />
          </mxGeometry>
        </mxCell>
        <mxCell id="Ub1_vusqEFFK5saVrgV2-526" value="&lt;div&gt;&lt;font style=&quot;font-size: 18px;&quot;&gt;Определение&lt;/font&gt;&lt;/div&gt;&lt;div&gt;&lt;font style=&quot;font-size: 18px;&quot;&gt;ролей&lt;br&gt;&lt;/font&gt;&lt;/div&gt;" style="rounded=0;whiteSpace=wrap;html=1;" parent="1" vertex="1">
          <mxGeometry x="2578" y="1532.0033333333336" width="140" height="60" as="geometry" />
        </mxCell>
        <mxCell id="Ub1_vusqEFFK5saVrgV2-527" value="&lt;font style=&quot;font-size: 18px;&quot;&gt;Файловая система ИМИТ&lt;br&gt;&lt;/font&gt;" style="sketch=0;outlineConnect=0;fontColor=#232F3E;gradientColor=none;fillColor=#000000;strokeColor=none;dashed=0;verticalLabelPosition=bottom;verticalAlign=top;align=center;html=1;fontSize=12;fontStyle=0;aspect=fixed;pointerEvents=1;shape=mxgraph.aws4.file_system;" parent="1" vertex="1">
          <mxGeometry x="2945" y="2361.3333333333335" width="78" height="73" as="geometry" />
        </mxCell>
        <mxCell id="Ub1_vusqEFFK5saVrgV2-528" value="&lt;font style=&quot;font-size: 18px;&quot;&gt;БД&lt;/font&gt;" style="shape=datastore;whiteSpace=wrap;html=1;" parent="1" vertex="1">
          <mxGeometry x="2942" y="2473.3333333333335" width="89" height="106" as="geometry" />
        </mxCell>
        <mxCell id="Ub1_vusqEFFK5saVrgV2-529" style="edgeStyle=orthogonalEdgeStyle;rounded=0;orthogonalLoop=1;jettySize=auto;html=1;exitX=1;exitY=0.5;exitDx=0;exitDy=0;entryX=0;entryY=0.5;entryDx=0;entryDy=0;endArrow=none;endFill=0;" parent="1" source="Ub1_vusqEFFK5saVrgV2-481" target="Ub1_vusqEFFK5saVrgV2-530" edge="1">
          <mxGeometry relative="1" as="geometry">
            <mxPoint x="2533" y="1715.3333333333335" as="sourcePoint" />
          </mxGeometry>
        </mxCell>
        <mxCell id="Ub1_vusqEFFK5saVrgV2-530" value="&lt;div&gt;&lt;font style=&quot;font-size: 18px;&quot;&gt;Определение&lt;/font&gt;&lt;/div&gt;&lt;div&gt;&lt;font style=&quot;font-size: 18px;&quot;&gt;пользователей&lt;br&gt;&lt;/font&gt;&lt;/div&gt;" style="rounded=0;whiteSpace=wrap;html=1;" parent="1" vertex="1">
          <mxGeometry x="2578" y="1618.0033333333336" width="140" height="60" as="geometry" />
        </mxCell>
        <mxCell id="Ub1_vusqEFFK5saVrgV2-531" value="&lt;div&gt;&lt;font style=&quot;font-size: 18px;&quot;&gt;modules&lt;br&gt;&lt;/font&gt;&lt;/div&gt;&lt;div&gt;&lt;font style=&quot;font-size: 18px;&quot;&gt;&lt;br&gt;&lt;/font&gt;&lt;/div&gt;&lt;div&gt;&lt;font style=&quot;font-size: 18px;&quot;&gt;&lt;br&gt;&lt;/font&gt;&lt;/div&gt;&lt;div&gt;&lt;font style=&quot;font-size: 18px;&quot;&gt;&lt;br&gt;&lt;/font&gt;&lt;/div&gt;&lt;div&gt;&lt;font style=&quot;font-size: 18px;&quot;&gt;&lt;br&gt;&lt;/font&gt;&lt;/div&gt;&lt;div&gt;&lt;font style=&quot;font-size: 18px;&quot;&gt;&lt;br&gt;&lt;/font&gt;&lt;/div&gt;&lt;div&gt;&lt;font style=&quot;font-size: 18px;&quot;&gt;&lt;br&gt;&lt;/font&gt;&lt;/div&gt;&lt;div&gt;&lt;font style=&quot;font-size: 18px;&quot;&gt;&lt;br&gt;&lt;/font&gt;&lt;/div&gt;&lt;div&gt;&lt;font style=&quot;font-size: 18px;&quot;&gt;&lt;br&gt;&lt;/font&gt;&lt;/div&gt;&lt;div&gt;&lt;br&gt;&lt;/div&gt;&lt;div&gt;&lt;br&gt;&lt;/div&gt;&lt;div&gt;&lt;br&gt;&lt;/div&gt;&lt;div&gt;&lt;br&gt;&lt;/div&gt;&lt;div&gt;&lt;br&gt;&lt;/div&gt;&lt;div&gt;&lt;br&gt;&lt;/div&gt;&lt;div&gt;&lt;br&gt;&lt;/div&gt;&lt;div&gt;&lt;br&gt;&lt;/div&gt;&lt;div&gt;&lt;br&gt;&lt;/div&gt;&lt;div&gt;&lt;br&gt;&lt;/div&gt;" style="ellipse;whiteSpace=wrap;html=1;" parent="1" vertex="1">
          <mxGeometry x="2305" y="2287.3333333333335" width="439" height="360" as="geometry" />
        </mxCell>
        <mxCell id="Ub1_vusqEFFK5saVrgV2-532" value="&lt;font style=&quot;font-size: 18px;&quot;&gt;curriculum_getter.py&lt;/font&gt;" style="ellipse;whiteSpace=wrap;html=1;" parent="1" vertex="1">
          <mxGeometry x="2434.5" y="2486.3333333333335" width="180" height="70" as="geometry" />
        </mxCell>
        <mxCell id="Ub1_vusqEFFK5saVrgV2-533" value="&lt;font style=&quot;font-size: 18px;&quot;&gt;curriculum_parser.py&lt;/font&gt;" style="ellipse;whiteSpace=wrap;html=1;" parent="1" vertex="1">
          <mxGeometry x="2434.5" y="2407.3333333333335" width="180" height="70" as="geometry" />
        </mxCell>
        <mxCell id="Ub1_vusqEFFK5saVrgV2-534" value="&lt;font style=&quot;font-size: 18px;&quot;&gt;report_generator.py&lt;/font&gt;" style="ellipse;whiteSpace=wrap;html=1;" parent="1" vertex="1">
          <mxGeometry x="2439.5" y="2328.3333333333335" width="170" height="70" as="geometry" />
        </mxCell>
        <mxCell id="Ub1_vusqEFFK5saVrgV2-535" value="&lt;font style=&quot;font-size: 18px;&quot;&gt;report_state.py&lt;/font&gt;" style="ellipse;whiteSpace=wrap;html=1;" parent="1" vertex="1">
          <mxGeometry x="2434.5" y="2565.3333333333335" width="180" height="70" as="geometry" />
        </mxCell>
        <mxCell id="Ub1_vusqEFFK5saVrgV2-536" style="rounded=0;orthogonalLoop=1;jettySize=auto;html=1;entryX=0.938;entryY=0.22;entryDx=0;entryDy=0;entryPerimeter=0;" parent="1" source="Ub1_vusqEFFK5saVrgV2-527" target="Ub1_vusqEFFK5saVrgV2-533" edge="1">
          <mxGeometry relative="1" as="geometry">
            <mxPoint x="2654" y="2532.3333333333335" as="sourcePoint" />
            <mxPoint x="2950" y="2542.3333333333335" as="targetPoint" />
          </mxGeometry>
        </mxCell>
        <mxCell id="Ub1_vusqEFFK5saVrgV2-537" style="rounded=0;orthogonalLoop=1;jettySize=auto;html=1;entryX=1;entryY=0.5;entryDx=0;entryDy=0;exitX=0;exitY=0.5;exitDx=0;exitDy=0;" parent="1" source="Ub1_vusqEFFK5saVrgV2-528" target="Ub1_vusqEFFK5saVrgV2-532" edge="1">
          <mxGeometry relative="1" as="geometry">
            <mxPoint x="2950" y="2542.3333333333335" as="sourcePoint" />
            <mxPoint x="2654" y="2532.3333333333335" as="targetPoint" />
          </mxGeometry>
        </mxCell>
        <mxCell id="Ub1_vusqEFFK5saVrgV2-538" style="rounded=0;orthogonalLoop=1;jettySize=auto;html=1;entryX=0;entryY=0.3;entryDx=0;entryDy=0;exitX=0.954;exitY=0.71;exitDx=0;exitDy=0;exitPerimeter=0;" parent="1" source="Ub1_vusqEFFK5saVrgV2-533" target="Ub1_vusqEFFK5saVrgV2-528" edge="1">
          <mxGeometry relative="1" as="geometry" />
        </mxCell>
        <mxCell id="Ub1_vusqEFFK5saVrgV2-539" style="rounded=0;orthogonalLoop=1;jettySize=auto;html=1;entryX=1;entryY=0.5;entryDx=0;entryDy=0;exitX=0;exitY=0.7;exitDx=0;exitDy=0;startArrow=classic;startFill=1;" parent="1" source="Ub1_vusqEFFK5saVrgV2-528" target="Ub1_vusqEFFK5saVrgV2-535" edge="1">
          <mxGeometry relative="1" as="geometry">
            <mxPoint x="2955" y="2582.3333333333335" as="sourcePoint" />
            <mxPoint x="2627" y="2577.3333333333335" as="targetPoint" />
          </mxGeometry>
        </mxCell>
        <mxCell id="Ub1_vusqEFFK5saVrgV2-540" style="rounded=0;orthogonalLoop=1;jettySize=auto;html=1;exitX=0.061;exitY=0.292;exitDx=0;exitDy=0;entryX=0.5;entryY=1;entryDx=0;entryDy=0;endArrow=classic;endFill=1;exitPerimeter=0;startArrow=classic;startFill=1;" parent="1" source="Ub1_vusqEFFK5saVrgV2-488" target="Ub1_vusqEFFK5saVrgV2-476" edge="1">
          <mxGeometry relative="1" as="geometry">
            <mxPoint x="2208" y="2090" as="sourcePoint" />
            <mxPoint x="2031" y="2090" as="targetPoint" />
          </mxGeometry>
        </mxCell>
        <mxCell id="Ub1_vusqEFFK5saVrgV2-541" value="&lt;div&gt;&lt;font style=&quot;font-size: 18px;&quot;&gt;глобальные&lt;/font&gt;&lt;/div&gt;&lt;div&gt;&lt;font size=&quot;3&quot;&gt;настройки&lt;br&gt;&lt;/font&gt;&lt;/div&gt;" style="edgeLabel;html=1;align=center;verticalAlign=middle;resizable=0;points=[];" parent="Ub1_vusqEFFK5saVrgV2-540" vertex="1" connectable="0">
          <mxGeometry x="0.3206" y="5" relative="1" as="geometry">
            <mxPoint x="-15" y="2" as="offset" />
          </mxGeometry>
        </mxCell>
      </root>
    </mxGraphModel>
  </diagram>
</mxfile>
